<svg xmlns="http://www.w3.org/2000/svg" viewBox="0 0 240 240" role="img" aria-labelledby="isfj-title" aria-describedby="isfj-desc">
<title id="isfj-title">ISFJ: The gardener protecting a young plant</title>
<desc id="isfj-desc">A kindly balding, bearded male gardener in a rose cardigan cups a terracotta pot in both hands. Two fresh green leaves are the gentle focal point.</desc>
<circle cx="120" cy="122" r="84" fill="#F7EAEE"/>
<ellipse cx="120" cy="216" rx="65" ry="3" fill="#263D48" opacity=".08"/>
<g fill="none" stroke="#263D48" stroke-width="1.4" stroke-linecap="round" stroke-linejoin="round">
<g transform="translate(119 0)">
<g data-part="leg">
<g data-part="shoe" transform="translate(-13 204) rotate(0) scale(-1 1)">
<path d="M-7.5 -3H7.5Q7.5 0 9.5 2L17 4.5Q21 5.5 21 8V10H-7.5Q-8.5 10 -8.5 7Z" fill="#263D48"/>
<path d="M-6.5 8H19" stroke="#FFF9ED" stroke-width="1" opacity=".32"/>
</g>
<path d="M-23 152H2Q1 168-3 180L-5.5 204 L-20.5 204Q-23 181-23 152Z" fill="#43554C" data-part="trousers"/>
</g>
<g data-part="leg">
<g data-part="shoe" transform="translate(21 204) rotate(0) scale(1 1)">
<path d="M-7.5 -3H7.5Q7.5 0 9.5 2L17 4.5Q21 5.5 21 8V10H-7.5Q-8.5 10 -8.5 7Z" fill="#263D48"/>
<path d="M-6.5 8H19" stroke="#FFF9ED" stroke-width="1" opacity=".32"/>
</g>
<path d="M1 152H23Q24 170 25 184L28.5 204 L13.5 204Q8 184 3 173L-1 166Z" fill="#263D48" data-part="trousers"/>
</g>
</g>
<path d="M94 107Q72 128 84 145L105 161" stroke-width="16.6"/>
<path d="M94 107Q72 128 84 145L105 161" stroke="#9A5263" stroke-width="14"/>
<path d="M143 107Q165 128 154 146L134 161" stroke-width="16.6"/>
<path d="M143 107Q165 128 154 146L134 161" stroke="#9A5263" stroke-width="14"/>
<g transform="translate(119 0) rotate(0 0 126)">
<path d="M-10 96Q-26 97-28 109L-24 158Q0 163 26 156L25 109Q23 99 10 96Z" fill="#9A5263"/>
<path d="M-9 97 0 104 10 97 12 156-7 159Z" fill="#FFF9ED" stroke="none"/>
<path d="M-11 96-2 104-10 122-20 108Z" fill="#BA7786" stroke="none"/>
<path d="M11 96 2 104 12 121 21 107Z" fill="#BA7786" stroke="none"/>
<path d="M-10 124-11 154M13 125 16 153" stroke="#FFF9ED" stroke-width="1" opacity=".28"/>
</g>
<g transform="translate(119 67) rotate(1)">
<rect x="-6" y="17" width="12" height="16" rx="3" fill="#E3AF87"/>
<path d="M-5 21Q0 26 6 22V28Q0 30-5 27Z" fill="#C98963" stroke="none"/>
<ellipse cx="-16.5" cy="3" rx="3.5" ry="5" fill="#E3AF87"/>
<ellipse cx="16.5" cy="3" rx="3.5" ry="5" fill="#E3AF87"/>
<path d="M-16-12Q-16-24 0-24Q16-24 16-12V7Q15 21 0 24Q-14 22-16 8Z" fill="#E3AF87"/>
<path d="M-16 5Q-21-9-15-16L-10-20V-13L-12-6V5ZM11-20Q21-12 17 5L13 4V-8Z" fill="#66513F" stroke="#66513F"/>
<path d="M-15 6-10 10-5 10 0 8 6 10 11 9 15 5 13 16Q8 24 0 24Q-10 22-14 15Z" fill="#66513F" stroke="#66513F"/>
<path d="M-11-2Q-7-4-3-2M4-2Q8-4 12-2" stroke="#66513F"/>
<circle cx="-7" cy="3" r="1.15" fill="#263D48" stroke="none"/>
<circle cx="8" cy="3" r="1.15" fill="#263D48" stroke="none"/>
<path d="M1 4-1 9 2 10" stroke="#C98963" stroke-width="1.2"/>
<path d="M-5 14Q0 19 6 14" stroke="#FFF9ED"/>
</g>
<path d="M83 141Q85 153 108 166" stroke-width="14.6"/>
<path d="M83 141Q85 153 108 166" stroke="#9A5263" stroke-width="12"/>
<path d="M155 141Q151 154 132 166" stroke-width="14.6"/>
<path d="M155 141Q151 154 132 166" stroke="#9A5263" stroke-width="12"/>
<g stroke="#965C40">
<path d="M104 146H135L131 174Q119 178 109 174Z" fill="#BA7C55"/>
<rect x="101" y="142" width="37" height="7" rx="2" fill="#D59A6C"/>
<path d="M119 142V113" stroke="#597953" stroke-width="2"/>
<path d="M118 131Q97 133 98 114Q117 113 118 131Z" fill="#6A925E" stroke="none"/>
<path d="M120 122Q117 102 138 102Q139 122 120 122Z" fill="#8BA976" stroke="none"/>
<path d="M104 119 117 131M121 119 133 107" stroke="#C7D9AB" stroke-width="1.2"/>
</g>
<g>
<path d="M98 158Q102 155 107 161L109 169 119 171Q122 174 118 177L107 175Q100 174 96 167Z" fill="#E3AF87"/>
<path d="M140 157Q136 155 133 161L130 169 122 171Q119 174 122 177L134 175Q141 173 144 166Z" fill="#E3AF87"/>
<path d="M107 168 113 172M133 168 128 172" stroke="#C98963" stroke-width="1"/>
</g>
</g>
</svg>
